<svg width="90" height="90" viewBox="0 0 90 90" fill="none" xmlns="http://www.w3.org/2000/svg">
<path d="M88 45C88 68.7482 68.7482 88 45 88C21.2518 88 2 68.7482 2 45C2 21.2518 21.2518 2 45 2C68.7482 2 88 21.2518 88 45Z" stroke="#F34C27" stroke-width="4" stroke-linecap="round" stroke-linejoin="round"/>
<path d="M43.6694 59C40.5956 58.6206 38.0489 57.2864 36.0293 54.9973C34.0098 52.7082 33 50.0208 33 46.935C33 45.2656 33.3302 43.6658 33.9907 42.1355C34.6512 40.6052 35.5911 39.271 36.8105 38.1328L38.9825 40.2954C38.0171 41.1554 37.2868 42.1545 36.7914 43.2927C36.2961 44.4309 36.0484 45.645 36.0484 46.935C36.0484 49.1608 36.7597 51.1274 38.1823 52.8347C39.6048 54.542 41.4339 55.5854 43.6694 55.9648V59ZM46.7177 59V55.9648C48.9278 55.5601 50.7505 54.5104 52.1858 52.8157C53.6211 51.121 54.3387 49.1608 54.3387 46.935C54.3387 44.4056 53.4496 42.2556 51.6714 40.4851C49.8931 38.7145 47.7339 37.8293 45.1935 37.8293H45.0792L46.7558 39.4986L44.622 41.6233L39.2873 36.3117L44.622 31L46.7558 33.1247L45.0792 34.794H45.1935C48.5976 34.794 51.4808 35.9702 53.8433 38.3225C56.2058 40.6748 57.3871 43.5456 57.3871 46.935C57.3871 49.9955 56.3773 52.6703 54.3578 54.9593C52.3382 57.2484 49.7915 58.5953 46.7177 59Z" fill="#F34C27"/>
</svg>
