<svg width="28" height="28" viewBox="0 0 28 28" fill="none" xmlns="http://www.w3.org/2000/svg">
<circle cx="14" cy="14" r="13.5" stroke="#191919"/>
<path d="M13.9999 15.3264C13.3332 15.3264 12.7666 15.09 12.2999 14.6172C11.8332 14.1444 11.5999 13.5703 11.5999 12.8948V8.03168C11.5999 7.35624 11.8332 6.78212 12.2999 6.30931C12.7666 5.8365 13.3332 5.6001 13.9999 5.6001C14.6666 5.6001 15.2332 5.8365 15.6999 6.30931C16.1666 6.78212 16.3999 7.35624 16.3999 8.03168V12.8948C16.3999 13.5703 16.1666 14.1444 15.6999 14.6172C15.2332 15.09 14.6666 15.3264 13.9999 15.3264ZM13.1999 21.0001V18.5077C11.8132 18.3186 10.6666 17.6904 9.7599 16.6233C8.85324 15.5561 8.3999 14.3133 8.3999 12.8948H9.9999C9.9999 14.0161 10.3899 14.9718 11.1699 15.7621C11.9499 16.5523 12.8932 16.9475 13.9999 16.9475C15.1066 16.9475 16.0499 16.5523 16.8299 15.7621C17.6099 14.9718 17.9999 14.0161 17.9999 12.8948H19.5999C19.5999 14.3133 19.1466 15.5561 18.2399 16.6233C17.3332 17.6904 16.1866 18.3186 14.7999 18.5077V21.0001H13.1999ZM13.9999 13.7054C14.2266 13.7054 14.4166 13.6277 14.5699 13.4723C14.7232 13.317 14.7999 13.1245 14.7999 12.8948V8.03168C14.7999 7.80203 14.7232 7.60953 14.5699 7.45418C14.4166 7.29883 14.2266 7.22115 13.9999 7.22115C13.7732 7.22115 13.5832 7.29883 13.4299 7.45418C13.2766 7.60953 13.1999 7.80203 13.1999 8.03168V12.8948C13.1999 13.1245 13.2766 13.317 13.4299 13.4723C13.5832 13.6277 13.7732 13.7054 13.9999 13.7054Z" fill="#191919"/>
</svg>
