<svg width="91" height="88" viewBox="0 0 91 88" fill="none" xmlns="http://www.w3.org/2000/svg">
<path d="M88.6667 43.7532C88.6667 66.8129 69.2657 85.5064 45.3333 85.5064C21.401 85.5064 2 66.8129 2 43.7532C2 20.6936 21.401 2 45.3333 2C69.2657 2 88.6667 20.6936 88.6667 43.7532Z" stroke="#F34C27" stroke-width="4" stroke-linecap="round" stroke-linejoin="round"/>
<path fill-rule="evenodd" clip-rule="evenodd" d="M58.4142 32.0636C59.1953 31.2826 59.1953 30.0162 58.4142 29.2352C57.6332 28.4542 56.3668 28.4542 55.5858 29.2352L45 39.821L34.4142 29.2352C33.6332 28.4542 32.3668 28.4542 31.5858 29.2352C30.8047 30.0162 30.8047 31.2826 31.5858 32.0636L42.1716 42.6494L31.5858 53.2352C30.8047 54.0162 30.8047 55.2826 31.5858 56.0636C32.3668 56.8447 33.6332 56.8447 34.4142 56.0636L45 45.4778L55.5858 56.0636C56.3668 56.8447 57.6332 56.8447 58.4142 56.0636C59.1953 55.2826 59.1953 54.0162 58.4142 53.2352L47.8284 42.6494L58.4142 32.0636Z" fill="#F34C27"/>
</svg>
