<svg width="90" height="90" viewBox="0 0 90 90" fill="none" xmlns="http://www.w3.org/2000/svg">
<g clip-path="url(#clip0_534_1423)">
<path d="M88 45C88 68.7482 68.7482 88 45 88C21.2518 88 2 68.7482 2 45C2 21.2518 21.2518 2 45 2C68.7482 2 88 21.2518 88 45Z" stroke="#0EAA7D" stroke-width="4" stroke-linecap="round" stroke-linejoin="round"/>
<path d="M45.5 46.7353L31.5125 37.9931V34.5226L45.4934 43.2606L45.4849 43.2742L45.5066 43.2606L59.5066 34.5106L59.5436 34.4875H59.5H31.5H31.4564L31.4875 34.5069V37.9774V38V55.5V55.5125H31.5H59.5H59.5125V55.5V38V37.9774L59.4934 37.9894L45.5 46.7353ZM31.5 58.9875C30.5408 58.9875 29.7201 58.6461 29.037 57.963C28.3539 57.2799 28.0125 56.4592 28.0125 55.5V34.5C28.0125 33.5408 28.3539 32.7201 29.037 32.037C29.7201 31.3539 30.5408 31.0125 31.5 31.0125H59.5C60.4592 31.0125 61.2799 31.3539 61.963 32.037C62.6461 32.7201 62.9875 33.5408 62.9875 34.5V55.5C62.9875 56.4592 62.6461 57.2799 61.963 57.963C61.2799 58.6461 60.4592 58.9875 59.5 58.9875H31.5Z" fill="#0EAA7D" stroke="#0EAA7D" stroke-width="0.025"/>
</g>
<defs>
<clipPath id="clip0_534_1423">
<rect width="90" height="90" fill="white"/>
</clipPath>
</defs>
</svg>
