<svg width="28" height="28" viewBox="0 0 28 28" fill="none" xmlns="http://www.w3.org/2000/svg">
<path d="M14.2 9.5C12.9048 9.5 11.7764 9.96468 10.8737 10.865C9.96117 11.775 9.5 12.8979 9.5 14.1952C9.5 15.4924 9.96117 16.6153 10.8737 17.5253C11.7862 18.4353 12.9048 18.9 14.2 18.9C15.4952 18.9 16.6236 18.4353 17.5263 17.5253C18.4388 16.6153 18.9 15.4924 18.9 14.1952C18.9 12.8979 18.4388 11.775 17.5263 10.865C16.6138 9.95499 15.4952 9.5 14.2 9.5ZM16.4764 16.4701C15.8582 17.0897 15.0929 17.4092 14.2 17.4092C13.3071 17.4092 12.5418 17.0897 11.9236 16.4701C11.3054 15.8506 10.9816 15.0858 10.9816 14.2048C10.9816 13.3239 11.2956 12.5591 11.9236 11.9299C12.5516 11.3006 13.3071 10.9908 14.2 10.9908C15.0929 10.9908 15.8582 11.3103 16.4764 11.9299C17.0946 12.5494 17.4184 13.3142 17.4184 14.2048C17.4184 15.0955 17.1044 15.8602 16.4764 16.4701Z" fill="#191919"/>
<path d="M26 14.0048C25.0149 11.5918 23.4229 9.64385 21.2736 8.19988C19.0945 6.74621 16.6468 6 14 6C11.3532 6 8.90547 6.73652 6.72637 8.19988C4.57711 9.63416 2.98507 11.5918 2 14.0048C2.98507 16.4179 4.57711 18.3658 6.72637 19.8098C8.90547 21.2635 11.3532 22.0097 14 22.0097C16.6468 22.0097 19.0945 21.2732 21.2736 19.8098C23.4229 18.3658 25.0149 16.4179 26 14.0048ZM19.9204 18.6178C18.1294 19.7323 16.1393 20.2944 14 20.2944C11.8607 20.2944 9.87065 19.7323 8.0796 18.6178C6.28856 17.513 4.90547 15.9915 3.9602 14.1114L3.91045 14.0048L3.9602 13.8982C4.90547 12.0182 6.28856 10.4967 8.0796 9.39188C9.87065 8.27741 11.8607 7.71532 14 7.71532C16.1393 7.71532 18.1294 8.27741 19.9204 9.39188C21.7114 10.4967 23.0945 12.0182 24.0398 13.8982L24.0896 14.0048L24.0398 14.1114C23.0945 15.9915 21.7114 17.513 19.9204 18.6178Z" fill="#191919"/>
</svg>
