<svg width="28" height="28" viewBox="0 0 28 28" fill="none" xmlns="http://www.w3.org/2000/svg">
<path d="M11.8 18.8C11.36 18.8 10.9833 18.6433 10.67 18.33C10.3567 18.0167 10.2 17.64 10.2 17.2V7.6C10.2 7.16 10.3567 6.78333 10.67 6.47C10.9833 6.15667 11.36 6 11.8 6H19C19.44 6 19.8167 6.15667 20.13 6.47C20.4433 6.78333 20.6 7.16 20.6 7.6V17.2C20.6 17.64 20.4433 18.0167 20.13 18.33C19.8167 18.6433 19.44 18.8 19 18.8H11.8ZM11.8 17.2H19V7.6H11.8V17.2ZM8.6 22C8.16 22 7.78333 21.8433 7.47 21.53C7.15667 21.2167 7 20.84 7 20.4V9.2H8.6V20.4H17.4V22H8.6Z" fill="black"/>
</svg>
