<svg width="28" height="28" viewBox="0 0 28 28" fill="none" xmlns="http://www.w3.org/2000/svg">
<path d="M18.11 15.5L16.66 14.05C16.81 13.27 16.58 12.53 15.98 11.85C15.38 11.17 14.6 10.9 13.65 11.05L12.2 9.6C12.48 9.47 12.77 9.37 13.06 9.3C13.35 9.23 13.66 9.2 14 9.2C15.25 9.2 16.31 9.64 17.19 10.51C18.07 11.38 18.5 12.45 18.5 13.7C18.5 14.03 18.47 14.35 18.4 14.64C18.33 14.93 18.23 15.22 18.1 15.5H18.11ZM21.31 18.65L19.86 17.25C20.49 16.77 21.06 16.24 21.55 15.66C22.04 15.08 22.46 14.43 22.81 13.7C21.98 12.02 20.78 10.68 19.22 9.69C17.66 8.7 15.92 8.2 14.01 8.2C13.53 8.2 13.05 8.23 12.58 8.3C12.11 8.37 11.65 8.47 11.2 8.6L9.65 7.05C10.33 6.77 11.03 6.55 11.75 6.41C12.47 6.27 13.22 6.2 14 6.2C16.52 6.2 18.76 6.9 20.73 8.29C22.7 9.68 24.12 11.49 25.01 13.7C24.63 14.68 24.12 15.6 23.5 16.44C22.88 17.28 22.15 18.02 21.31 18.65ZM20.25 23.24L17.61 20.65C17.03 20.83 16.44 20.97 15.85 21.06C15.26 21.15 14.65 21.2 14.01 21.2C11.49 21.2 9.25 20.5 7.28 19.11C5.31 17.72 3.89 15.91 3 13.7C3.35 12.82 3.79 12 4.33 11.24C4.87 10.48 5.47 9.8 6.16 9.2L3.41 6.4L4.81 5L21.65 21.84L20.25 23.24ZM7.56 10.6C7.08 11.03 6.63 11.51 6.23 12.03C5.83 12.55 5.49 13.11 5.2 13.71C6.03 15.39 7.23 16.73 8.79 17.72C10.35 18.71 12.09 19.21 14 19.21C14.33 19.21 14.66 19.19 14.98 19.15C15.3 19.11 15.62 19.06 15.96 19.01L15.06 18.06C14.88 18.11 14.7 18.15 14.53 18.17C14.36 18.19 14.19 18.21 14 18.21C12.75 18.21 11.69 17.77 10.81 16.9C9.93 16.03 9.5 14.96 9.5 13.71C9.5 13.53 9.51 13.35 9.54 13.18C9.57 13.01 9.6 12.84 9.65 12.65L7.55 10.6H7.56Z" fill="#191919"/>
</svg>
