<svg width="90" height="90" viewBox="0 0 90 90" fill="none" xmlns="http://www.w3.org/2000/svg">
<path d="M88 45C88 68.7482 68.7482 88 45 88C21.2518 88 2 68.7482 2 45C2 21.2518 21.2518 2 45 2C68.7482 2 88 21.2518 88 45Z" stroke="#F34C27" stroke-width="4" stroke-linecap="round" stroke-linejoin="round"/>
<path d="M29 59L45.2105 31L61.4211 59H29ZM34.0842 56.0526H56.3368L45.2105 36.8947L34.0842 56.0526ZM45.2105 54.5789C45.6281 54.5789 45.9781 54.4377 46.2605 54.1553C46.543 53.8728 46.6842 53.5228 46.6842 53.1053C46.6842 52.6877 46.543 52.3377 46.2605 52.0553C45.9781 51.7728 45.6281 51.6316 45.2105 51.6316C44.793 51.6316 44.443 51.7728 44.1605 52.0553C43.8781 52.3377 43.7368 52.6877 43.7368 53.1053C43.7368 53.5228 43.8781 53.8728 44.1605 54.1553C44.443 54.4377 44.793 54.5789 45.2105 54.5789ZM43.7368 50.1579H46.6842V42.7895H43.7368V50.1579Z" fill="#F34C27"/>
</svg>
