<svg width="28" height="28" viewBox="0 0 28 28" fill="none" xmlns="http://www.w3.org/2000/svg">
<g clip-path="url(#clip0_2557_2)">
<path d="M23.4075 19.4314L13.9998 13.9998V24.8634L23.4075 19.4314Z" fill="#D82400"/>
<path d="M4.59247 19.4314L14.0002 24.8634V13.9998L4.59247 19.4314Z" fill="#F73603"/>
<path d="M28 13.9998L26.1242 6.99969L23.408 8.5686L28 13.9998Z" fill="#DD5298"/>
<path d="M23.4075 19.4314L21.0003 26.1237L26.1241 20.9999L23.4075 19.4314Z" fill="#3E1EE6"/>
<path d="M26.1242 20.9995L28 13.9998L23.4075 19.4314L26.1242 20.9995Z" fill="#664AF6"/>
<path d="M13.9998 3.13701L4.59204 8.56819L13.9998 13.9994V3.13701Z" fill="#FF8F08"/>
<path d="M23.4075 19.4314V8.5686L13.9998 13.9998L23.4075 19.4314Z" fill="#F73603"/>
<path d="M4.59247 8.56819V19.4314L14.0002 14.0002L4.59247 8.56819Z" fill="#FF6700"/>
<path d="M13.9998 27.9996L20.9999 26.1241L13.9998 24.8634V27.9996Z" fill="#024D59"/>
<path d="M23.4075 8.5682L26.1241 6.99969L21.0003 1.87627L23.4075 8.5682Z" fill="#FFBA0D"/>
<path d="M23.4075 8.56819L13.9998 3.13701V14.0002L23.4075 8.56819Z" fill="#FF6700"/>
<path d="M1.87585 6.99969L0 13.9998L4.59248 8.5686L1.87585 6.99969Z" fill="#FFBA0D"/>
<path d="M13.9998 24.863L7.00012 26.1246L13.9998 27.9992V24.863Z" fill="#098979"/>
<path d="M4.59248 8.5682L6.99969 1.87627L1.87585 6.99969L4.59248 8.5682Z" fill="#FFD60B"/>
<path d="M13.9998 0L7.00012 1.87585L13.9998 3.13701V0Z" fill="#FFD60B"/>
<path d="M0 13.9998L1.87585 20.9995L4.59206 19.4314L0 13.9998Z" fill="#FFBA0D"/>
<path d="M4.59248 19.4314L1.87585 20.9999L6.99969 26.1237L4.59248 19.4314Z" fill="#22DDB9"/>
<path d="M20.9999 1.87585L13.9998 0V3.13701L20.9999 1.87585Z" fill="#FFBA0D"/>
<path d="M13.9998 24.863L20.9999 26.1246L23.4075 19.4318L13.9998 24.863Z" fill="#624BEE"/>
<path d="M4.59247 19.4314L6.99968 26.1237L14.0002 24.8634L4.59247 19.4314Z" fill="#0EAA7D"/>
<path d="M23.4075 8.5682L21.0003 1.87627L13.9998 3.13701L23.4075 8.5682Z" fill="#FF9B0B"/>
<path d="M23.4075 8.56819V19.4314L27.9996 14.0002L23.4075 8.56819Z" fill="#CE2874"/>
<path d="M13.9998 3.13701L7.00008 1.87544L4.59204 8.5682L13.9998 3.13701Z" fill="#FFBA0D"/>
<path d="M4.59248 19.4314V8.5686L0 13.9998L4.59248 19.4314Z" fill="#FF9B0B"/>
</g>
<defs>
<clipPath id="clip0_2557_2">
<rect width="28" height="27.9996" fill="white"/>
</clipPath>
</defs>
</svg>
