<svg width="304" height="72" viewBox="0 0 304 72" fill="none" xmlns="http://www.w3.org/2000/svg">
<path d="M247.44 33.22V23.93H227.81V33.22H247.44ZM231.81 27.42H243.45V29.72H231.81V27.42Z" fill="white"/>
<path d="M252.09 33.62H256.19V21.93H260.38V17.98H224.56V21.93H252.09V33.62Z" fill="white"/>
<path d="M94.67 53.95H121.85C125.25 53.95 127.75 51.95 127.75 48.65V38.01H94.68V53.95H94.67ZM99.01 42.26H123.39V47.46C123.39 49.21 122.54 49.71 120.89 49.71H99.01V42.27V42.26Z" fill="white"/>
<path d="M120.85 24.73L123.65 29.68H98.67V28.78C98.67 27.03 99.57 25.88 100.92 25.23L111.41 20.08L109.46 16.08L98.57 21.48C95.22 23.13 93.92 25.63 93.92 28.97V34.07H126.13L127.34 36.22L131.19 34.22L124.7 22.88L120.85 24.73Z" fill="white"/>
<path d="M222.66 39.07H252.09V46.81C252.09 51.01 249.14 51.91 245.15 51.91V56.01H245.8C252.54 56.01 256.19 52.96 256.19 46.82V39.08H261.19V35.23H222.67V39.08L222.66 39.07Z" fill="white"/>
<path d="M201.8 30.27H217.92V25.77H201.78V17.33H197.18V25.77H181.39V30.27H196.95C195.5 38.21 192.65 46.36 180.14 51.1L182.34 55.2C194.19 50.75 197.93 43.58 199.7 36.63C202.35 43.91 207.82 51.49 216.81 55.2L219.21 51C208.33 46.04 203.47 37.47 201.79 30.27H201.8Z" fill="white"/>
<path d="M247.44 41.06H227.41V50.65H247.44V41.06ZM243.45 47.16H231.41V44.56H243.45V47.16Z" fill="white"/>
<path d="M285.63 30.27H301.75V25.77H285.61V17.33H280.96V25.77H265.22V30.27H280.78C279.33 38.21 276.48 46.36 263.97 51.1L266.17 55.2C278.02 50.75 281.76 43.58 283.53 36.63C286.18 43.91 291.65 51.49 300.64 55.2L303.04 51C292.16 46.04 287.3 37.47 285.62 30.27H285.63Z" fill="white"/>
<path d="M139.81 40.91C139.81 46.81 138.91 50.3 134.61 52.15L137.06 55.5C142.96 53.25 143.8 47.46 143.8 40.36V40.01H139.8V40.91H139.81Z" fill="white"/>
<path d="M135.61 19.23L141.6 25.93L144.55 23.18L138.56 16.68L135.61 19.23Z" fill="white"/>
<path d="M135.41 29.62L141.3 36.27L144.35 33.52L138.41 27.08L135.41 29.62Z" fill="white"/>
<path d="M150.97 44.76H172.93V36.87H146.65V40.07H168.88V41.67H147.55L145.8 51.01L149.75 51.66L150.07 49.86H170.4C169.8 51.27 167.71 52.02 161.74 52.11V55.76H162.19C171.13 55.76 174.58 53.26 174.58 48.37V46.47H150.67L150.97 44.77V44.76Z" fill="white"/>
<path d="M154.27 20.98V18.05H158.37V16.43H161.6V18.05H165.75V20.98H154.27Z" fill="white"/>
<path d="M161.46 35.21V33.57H158.56V35.21H155.69V30.64H164.33V35.21H161.46Z" fill="white"/>
<path d="M163.96 26.46H156.06V29.37H163.96V26.46Z" fill="white"/>
<path d="M163.96 22.28H156.06V25.19H163.96V22.28Z" fill="white"/>
<path d="M151.27 32.15H149.03V32.03C149.03 31.58 149.03 30.91 149.45 30.37L154.82 23.93L152.59 22.16L150.55 24.53H149.02V23.75C149.02 23.21 149.17 22.78 149.49 22.4L152.5 18.61L150.23 16.81L146.68 21.09C146.05 21.84 145.77 22.63 145.77 23.64V26.98H148.45L146.79 28.92C146.05 29.74 145.73 30.78 145.73 32.29V35.21H154.44V29.53H151.27V32.15Z" fill="white"/>
<path d="M171.14 32.15H168.9V32.03C168.9 31.58 168.9 30.91 169.32 30.37L174.69 23.93L172.46 22.16L170.42 24.53H168.89V23.75C168.89 23.21 169.04 22.78 169.36 22.4L172.37 18.61L170.1 16.81L166.55 21.09C165.92 21.84 165.64 22.63 165.64 23.64V26.98H168.32L166.66 28.92C165.92 29.74 165.6 30.78 165.6 32.29V35.21H174.31V29.53H171.14V32.15Z" fill="white"/>
<path d="M59.48 49.93L35.73 36.22V63.65L59.48 49.93Z" fill="#D82400"/>
<path d="M11.97 49.93L35.73 63.65V36.22L11.97 49.93Z" fill="#F73603"/>
<path d="M71.08 36.22L66.34 18.54L59.48 22.5L71.08 36.22Z" fill="#DD5298"/>
<path d="M59.48 49.93L53.4 66.83L66.34 53.89L59.48 49.93Z" fill="#3E1EE6"/>
<path d="M66.34 53.89L71.08 36.22L59.48 49.93L66.34 53.89Z" fill="#624BEE"/>
<path d="M35.73 8.78999L11.97 22.5L35.73 36.22V8.78999Z" fill="#FF8F08"/>
<path d="M59.48 49.93V22.5L35.73 36.22L59.48 49.93Z" fill="#F73603"/>
<path d="M11.97 22.5V49.93L35.73 36.22L11.97 22.5Z" fill="#FF6700"/>
<path d="M35.73 71.57L53.4 66.83L35.73 63.65V71.57Z" fill="#024D59"/>
<path d="M59.48 22.5L66.34 18.54L53.4 5.61L59.48 22.5Z" fill="#FFBA0D"/>
<path d="M59.48 22.5L35.73 8.78999V36.22L59.48 22.5Z" fill="#FF6700"/>
<path d="M5.11001 18.54L0.380005 36.22L11.97 22.5L5.11001 18.54Z" fill="#FFBA0D"/>
<path d="M35.73 63.65L18.05 66.83L35.73 71.57V63.65Z" fill="#098979"/>
<path d="M11.97 22.5L18.05 5.61L5.10999 18.54L11.97 22.5Z" fill="#FFD60B"/>
<path d="M35.73 0.869995L18.05 5.59999L35.73 8.79V0.869995Z" fill="#FFD60B"/>
<path d="M0.380005 36.22L5.11001 53.89L11.97 49.93L0.380005 36.22Z" fill="#FFBA0D"/>
<path d="M11.97 49.93L5.10999 53.89L18.05 66.83L11.97 49.93Z" fill="#22DDB9"/>
<path d="M53.4 5.61L35.73 0.869995V8.79L53.4 5.61Z" fill="#FFBA0D"/>
<path d="M35.73 63.65L53.4 66.83L59.48 49.93L35.73 63.65Z" fill="#624BEE"/>
<path d="M11.97 49.93L18.05 66.83L35.73 63.65L11.97 49.93Z" fill="#0EAA7D"/>
<path d="M59.48 22.5L53.4 5.61L35.73 8.79L59.48 22.5Z" fill="#FF9B0B"/>
<path d="M59.48 22.5V49.93L71.08 36.22L59.48 22.5Z" fill="#CE2874"/>
<path d="M35.73 8.78999L18.05 5.59999L11.97 22.5L35.73 8.78999Z" fill="#FFBA0D"/>
<path d="M11.97 49.93V22.5L0.380005 36.22L11.97 49.93Z" fill="#FF9B0B"/>
</svg>
